HIERARCHY
ROOT hip
{
	OFFSET 0.000000 0.000000 0.000000 
	CHANNELS 6 Xposition Yposition Zposition Zrotation Xrotation Yrotation
	JOINT abdomen
	{
		OFFSET 0.000000 3.402643 0.000000 
		CHANNELS 3 Zrotation Xrotation Yrotation
		JOINT chest
		{
			OFFSET 0.000000 8.438565 -0.680529 
			CHANNELS 3 Zrotation Xrotation Yrotation
			JOINT neck
			{
				OFFSET 0.000000 9.885400 -0.272212 
				CHANNELS 3 Zrotation Xrotation Yrotation
				JOINT head
				{
					OFFSET 0.000000 3.130431 0.000000 
					CHANNELS 3 Zrotation Xrotation Yrotation
					End Site
					{
						OFFSET 0.000000 3.039250 0.000000 
					}
				}
			}
			JOINT lCollar
			{
				OFFSET 3.238290 6.669187 -0.816635 
				CHANNELS 3 Zrotation Xrotation Yrotation
				JOINT lShldr
				{
					OFFSET 2.515050 0.000000 0.000000 
					CHANNELS 3 Zrotation Xrotation Yrotation
					JOINT lForeArm
					{
						OFFSET 11.517700 0.000000 0.000000 
						CHANNELS 3 Zrotation Xrotation Yrotation
						JOINT lHand
						{
							OFFSET 9.026700 0.000000 0.000000 
							CHANNELS 3 Zrotation Xrotation Yrotation
							End Site
							{
								OFFSET 4.028470 0.000000 0.000000 
							}
						}
					}
				}
			}
			JOINT rCollar
			{
				OFFSET -3.238290 6.669187 -0.816635 
				CHANNELS 3 Zrotation Xrotation Yrotation
				JOINT rShldr
				{
					OFFSET -2.515050 0.000000 0.000000 
					CHANNELS 3 Zrotation Xrotation Yrotation
					JOINT rForeArm
					{
						OFFSET -11.517700 0.000000 0.000000 
						CHANNELS 3 Zrotation Xrotation Yrotation
						JOINT rHand
						{
							OFFSET -9.026700 0.000000 0.000000 
							CHANNELS 3 Zrotation Xrotation Yrotation
							End Site
							{
								OFFSET -4.028470 0.000000 0.000000 
							}
						}
					}
				}
			}
		}
	}
	JOINT lThigh
	{
		OFFSET 4.983750 -1.633274 1.361059 
		CHANNELS 3 Zrotation Xrotation Yrotation
		JOINT lShin
		{
			OFFSET -2.041588 -20.007561 0.000000 
			CHANNELS 3 Zrotation Xrotation Yrotation
			JOINT lFoot
			{
				OFFSET 0.000000 -19.190928 -1.224953 
				CHANNELS 3 Zrotation Xrotation Yrotation
				End Site
				{
					OFFSET 0.000000 -2.449906 4.627600 
				}
			}
		}
	}
	JOINT rThigh
	{
		OFFSET -4.983750 -1.633274 1.361059 
		CHANNELS 3 Zrotation Xrotation Yrotation
		JOINT rShin
		{
			OFFSET 2.041588 -20.007561 0.000000 
			CHANNELS 3 Zrotation Xrotation Yrotation
			JOINT rFoot
			{
				OFFSET 0.000000 -19.190928 -1.224953 
				CHANNELS 3 Zrotation Xrotation Yrotation
				End Site
				{
					OFFSET 0.000000 -2.449906 4.627600 
				}
			}
		}
	}
}
MOTION
Frames: 6
Frame Time: 0.050000
0.165438 28.092655 1.420408 0.000000 0.000000 6.802994 3.930337 7.717866 -0.880332 1.948723 6.233219 -3.383257 0.000000 0.000000 0.000000 0.000000 0.000000 0.000000 -17.050819 13.767784 -28.619812 5.032503 2.353975 -15.068669 -20.233448 0.582948 -82.345169 -6.999999 0.000000 0.000000 26.387768 14.820211 26.609882 20.605604 6.932578 25.941944 5.235034 2.851590 61.480331 6.999999 -40.018116 -0.000000 5.899373 -11.635969 1.508036 -2.369795 27.197195 1.001180 5.480283 -14.059009 0.242448 -5.993333 -11.533527 -1.764976 3.375249 27.363714 -1.447668 -5.771553 -14.170755 0.619660 
0.192364 27.991823 1.509607 0.000000 0.000000 6.588791 4.429903 10.176813 -0.957123 2.853380 7.403813 -1.613914 0.000000 0.000000 0.000000 0.000000 0.000000 0.000000 -17.258465 13.872469 -28.077408 4.406059 2.898421 -13.692307 -20.221220 0.989978 -83.125099 -6.176562 -0.564710 0.655806 26.497866 14.586428 26.581896 17.589270 6.634214 28.020390 4.910247 1.388014 54.249866 6.555359 -36.327477 -0.557319 5.981235 -12.475408 1.651343 -2.512774 30.110626 1.183395 5.548424 -16.184080 -0.052976 -6.165274 -12.230178 -1.872873 3.323441 30.147495 -1.557242 -5.555134 -16.208445 0.376130 
0.216900 27.902622 1.590746 0.000000 0.000000 6.407801 5.312125 14.278031 -1.182520 4.408215 9.388156 3.244133 0.000000 0.000000 0.000000 0.000000 0.000000 0.000000 -17.812859 14.134742 -26.628363 2.624175 4.394497 -10.030745 -20.155209 2.036712 -85.128799 -3.905988 -2.076425 2.414834 26.211084 13.348907 26.656231 11.819387 5.648048 30.489136 3.237167 -1.307908 41.108135 5.573578 -31.304731 -1.933950 6.138383 -14.093924 1.935583 -2.814639 35.283497 1.557709 5.711504 -19.929214 -1.235511 -6.450432 -13.352492 -2.054512 3.278865 34.985664 -1.755680 -5.215313 -19.774395 -0.683366 
0.238519 27.827549 1.662045 0.000000 0.000000 6.267610 6.391278 18.908743 -1.600505 6.213718 11.637190 9.635872 0.000000 0.000000 0.000000 0.000000 0.000000 0.000000 -18.617859 14.471332 -24.540932 -0.242254 6.618058 -4.772179 -19.985350 3.458037 -87.855125 -0.454032 -4.253485 4.971378 25.737637 11.701968 26.788858 5.103285 4.368480 33.115364 0.162125 -3.347075 26.143042 4.519915 -25.410036 -3.758468 6.327143 -15.973660 2.277954 -3.236856 41.075191 2.069310 5.937555 -24.111252 -2.887455 -6.762617 -14.547928 -2.260250 3.271551 40.349762 -1.980966 -4.859699 -23.759089 -2.170398 
0.256694 27.769077 1.721726 0.000000 0.000000 6.175802 7.432496 22.968218 -2.127359 7.850678 13.614070 16.117422 0.000000 0.000000 0.000000 0.000000 0.000000 0.000000 -19.567419 14.806242 -22.083307 -4.087270 9.280558 1.420927 -19.696108 4.986170 -90.804634 3.891586 -6.800604 8.031084 25.281443 10.240594 26.925095 -0.824765 3.158392 35.664196 -2.985601 -3.913121 13.655678 3.708794 -19.122591 -5.779741 6.495587 -17.597794 2.584781 -3.677608 45.847374 2.590417 6.162145 -27.545813 -4.617168 -7.009651 -15.465670 -2.426768 3.310851 44.710274 -2.182636 -4.589176 -27.032701 -3.749499 
0.270899 27.729700 1.768010 0.000000 0.000000 6.139966 8.108078 25.376593 -2.519501 8.865296 14.805778 21.363079 0.000000 0.000000 0.000000 0.000000 0.000000 0.000000 -20.532011 15.084952 -19.521231 -8.638423 12.043034 7.896657 -19.334993 6.359486 -93.472336 8.761720 -9.417871 11.302465 25.036041 9.560832 26.999025 -4.307170 2.333802 37.888489 -4.503688 -3.873370 8.024987 3.289932 -12.935781 -7.832955 6.582068 -18.450676 2.750274 -3.917136 47.965843 2.866004 6.284138 -29.046612 -6.068192 -7.093972 -15.756410 -2.479662 3.377986 46.537170 -2.303154 -4.506802 -28.441330 -5.130635 
